<mxfile host="drawio-plugin" modified="2021-05-07T08:08:47.871Z" agent="5.0 (Macintosh; Intel Mac OS X 10_16_0) AppleWebKit/537.36 (KHTML, like Gecko) Chrome/84.0.4147.105 Safari/537.36" etag="pORXXphBrCppf0vAc-0L" version="13.7.9" type="embed" pages="2"><diagram id="yeD6IXACktP5UXALGS6s" name="ER"><mxGraphModel dx="969" dy="1996" grid="0" gridSize="10" guides="0" tooltips="1" connect="1" arrows="1" fold="1" page="1" pageScale="1" pageWidth="1920" pageHeight="1200" math="0" shadow="0"><root><mxCell id="pAx6MIiJs9md1RZ7_73a-0"/><mxCell id="pAx6MIiJs9md1RZ7_73a-1" parent="pAx6MIiJs9md1RZ7_73a-0"/><mxCell id="leDvjswxinIUU42oQIF3-1" value="" style="ellipse;whiteSpace=wrap;html=1;aspect=fixed;strokeColor=#6c8ebf;fillColor=none;dashed=1;strokeWidth=5;" parent="pAx6MIiJs9md1RZ7_73a-1" vertex="1"><mxGeometry x="811" y="-1035" width="700" height="700" as="geometry"/></mxCell><mxCell id="leDvjswxinIUU42oQIF3-2" value="" style="ellipse;whiteSpace=wrap;html=1;aspect=fixed;dashed=1;strokeWidth=5;strokeColor=#82b366;fillColor=none;" parent="pAx6MIiJs9md1RZ7_73a-1" vertex="1"><mxGeometry x="473" y="-625" width="300" height="300" as="geometry"/></mxCell><mxCell id="yd_UDoEApeNAMP6L8CoY-0" style="edgeStyle=none;rounded=0;orthogonalLoop=1;jettySize=auto;html=1;entryX=0;entryY=0.5;entryDx=0;entryDy=0;startArrow=ERone;startFill=0;endArrow=none;endFill=0;exitX=1;exitY=1;exitDx=0;exitDy=0;" parent="pAx6MIiJs9md1RZ7_73a-1" source="syMxJS4I7-vvspAqpIxT-1" target="pAx6MIiJs9md1RZ7_73a-3" edge="1"><mxGeometry relative="1" as="geometry"><mxPoint x="421.03999999999996" y="-707.96" as="sourcePoint"/></mxGeometry></mxCell><mxCell id="yd_UDoEApeNAMP6L8CoY-1" style="edgeStyle=none;rounded=0;orthogonalLoop=1;jettySize=auto;html=1;entryX=0.5;entryY=0;entryDx=0;entryDy=0;endArrow=ERmany;endFill=0;exitX=1;exitY=0.5;exitDx=0;exitDy=0;" parent="pAx6MIiJs9md1RZ7_73a-1" source="pAx6MIiJs9md1RZ7_73a-3" target="syMxJS4I7-vvspAqpIxT-4" edge="1"><mxGeometry relative="1" as="geometry"><mxPoint x="613" y="-495" as="targetPoint"/></mxGeometry></mxCell><mxCell id="pAx6MIiJs9md1RZ7_73a-3" value="make" style="rhombus;whiteSpace=wrap;html=1;" parent="pAx6MIiJs9md1RZ7_73a-1" vertex="1"><mxGeometry x="560" y="-618" width="80" height="57" as="geometry"/></mxCell><mxCell id="TUiUpgwA9mb-X04-EVIy-0" style="edgeStyle=none;rounded=0;orthogonalLoop=1;jettySize=auto;html=1;entryX=0;entryY=0.5;entryDx=0;entryDy=0;startArrow=ERone;startFill=0;endArrow=none;endFill=0;exitX=1;exitY=0.5;exitDx=0;exitDy=0;" parent="pAx6MIiJs9md1RZ7_73a-1" source="syMxJS4I7-vvspAqpIxT-4" target="Ef_ZK3-HvVP1Qj2Gm39t-0" edge="1"><mxGeometry relative="1" as="geometry"><mxPoint x="731.1262298572055" y="-504.9183646184915" as="sourcePoint"/></mxGeometry></mxCell><mxCell id="cOnySKGzXaCLTlc3LaJJ-8" value="" style="edgeStyle=none;rounded=0;orthogonalLoop=1;jettySize=auto;html=1;startArrow=ERone;startFill=0;endArrow=none;endFill=0;" parent="pAx6MIiJs9md1RZ7_73a-1" source="syMxJS4I7-vvspAqpIxT-4" target="cOnySKGzXaCLTlc3LaJJ-7" edge="1"><mxGeometry relative="1" as="geometry"><mxPoint x="673" y="-455" as="sourcePoint"/></mxGeometry></mxCell><mxCell id="1bRgtQcLL5dLRBGIEbU9-1" value="" style="edgeStyle=none;rounded=0;orthogonalLoop=1;jettySize=auto;html=1;startArrow=none;startFill=0;endArrow=ERone;endFill=0;entryX=0;entryY=1;entryDx=0;entryDy=0;exitX=1;exitY=0.5;exitDx=0;exitDy=0;" parent="pAx6MIiJs9md1RZ7_73a-1" source="Ef_ZK3-HvVP1Qj2Gm39t-0" target="syMxJS4I7-vvspAqpIxT-8" edge="1"><mxGeometry relative="1" as="geometry"><mxPoint x="1153.2545456403382" y="-622.6354469895637" as="targetPoint"/></mxGeometry></mxCell><mxCell id="Ef_ZK3-HvVP1Qj2Gm39t-0" value="make" style="rhombus;whiteSpace=wrap;html=1;" parent="pAx6MIiJs9md1RZ7_73a-1" vertex="1"><mxGeometry x="906" y="-581" width="80" height="50" as="geometry"/></mxCell><mxCell id="cOnySKGzXaCLTlc3LaJJ-23" style="rounded=0;orthogonalLoop=1;jettySize=auto;html=1;entryX=0;entryY=0.5;entryDx=0;entryDy=0;startArrow=ERone;startFill=0;endArrow=none;endFill=0;exitX=1;exitY=0;exitDx=0;exitDy=0;" parent="pAx6MIiJs9md1RZ7_73a-1" source="syMxJS4I7-vvspAqpIxT-1" target="cOnySKGzXaCLTlc3LaJJ-14" edge="1"><mxGeometry relative="1" as="geometry"><mxPoint x="425.937952324507" y="-772.9390785673162" as="sourcePoint"/></mxGeometry></mxCell><mxCell id="cOnySKGzXaCLTlc3LaJJ-9" value="" style="edgeStyle=none;rounded=0;orthogonalLoop=1;jettySize=auto;html=1;endArrow=ERmany;endFill=0;entryX=0.5;entryY=0;entryDx=0;entryDy=0;" parent="pAx6MIiJs9md1RZ7_73a-1" source="cOnySKGzXaCLTlc3LaJJ-7" target="syMxJS4I7-vvspAqpIxT-3" edge="1"><mxGeometry relative="1" as="geometry"><mxPoint x="673" y="-295" as="targetPoint"/></mxGeometry></mxCell><mxCell id="cOnySKGzXaCLTlc3LaJJ-7" value="reserve" style="rhombus;whiteSpace=wrap;html=1;" parent="pAx6MIiJs9md1RZ7_73a-1" vertex="1"><mxGeometry x="646" y="-424" width="80" height="52" as="geometry"/></mxCell><mxCell id="cOnySKGzXaCLTlc3LaJJ-17" value="" style="edgeStyle=none;rounded=0;orthogonalLoop=1;jettySize=auto;html=1;endArrow=ERmany;endFill=0;entryX=0;entryY=0.5;entryDx=0;entryDy=0;" parent="pAx6MIiJs9md1RZ7_73a-1" source="cOnySKGzXaCLTlc3LaJJ-14" target="syMxJS4I7-vvspAqpIxT-5" edge="1"><mxGeometry relative="1" as="geometry"><mxPoint x="668.4993116216019" y="-855.1138194868256" as="targetPoint"/></mxGeometry></mxCell><mxCell id="cOnySKGzXaCLTlc3LaJJ-14" value="has" style="rhombus;whiteSpace=wrap;html=1;" parent="pAx6MIiJs9md1RZ7_73a-1" vertex="1"><mxGeometry x="529" y="-880" width="80" height="80" as="geometry"/></mxCell><mxCell id="cOnySKGzXaCLTlc3LaJJ-31" value="" style="edgeStyle=none;rounded=0;orthogonalLoop=1;jettySize=auto;html=1;endArrow=ERone;endFill=0;entryX=0.5;entryY=0;entryDx=0;entryDy=0;exitX=0.5;exitY=1;exitDx=0;exitDy=0;" parent="pAx6MIiJs9md1RZ7_73a-1" source="cOnySKGzXaCLTlc3LaJJ-28" target="syMxJS4I7-vvspAqpIxT-6" edge="1"><mxGeometry relative="1" as="geometry"><mxPoint x="1270.998971815417" y="-258.7267645822849" as="targetPoint"/></mxGeometry></mxCell><mxCell id="cOnySKGzXaCLTlc3LaJJ-28" value="transfer" style="rhombus;whiteSpace=wrap;html=1;" parent="pAx6MIiJs9md1RZ7_73a-1" vertex="1"><mxGeometry x="1195" y="-478" width="80" height="55" as="geometry"/></mxCell><mxCell id="cOnySKGzXaCLTlc3LaJJ-34" style="edgeStyle=none;rounded=0;orthogonalLoop=1;jettySize=auto;html=1;entryX=1.008;entryY=0.4;entryDx=0;entryDy=0;endArrow=ERone;endFill=0;startArrow=none;entryPerimeter=0;exitX=0;exitY=0.5;exitDx=0;exitDy=0;" parent="pAx6MIiJs9md1RZ7_73a-1" source="cOnySKGzXaCLTlc3LaJJ-32" target="syMxJS4I7-vvspAqpIxT-5" edge="1"><mxGeometry relative="1" as="geometry"><mxPoint x="787" y="-864" as="targetPoint"/></mxGeometry></mxCell><mxCell id="cOnySKGzXaCLTlc3LaJJ-32" value="include" style="rhombus;whiteSpace=wrap;html=1;" parent="pAx6MIiJs9md1RZ7_73a-1" vertex="1"><mxGeometry x="904" y="-856" width="80" height="41" as="geometry"/></mxCell><mxCell id="1bRgtQcLL5dLRBGIEbU9-3" value="" style="edgeStyle=none;rounded=0;orthogonalLoop=1;jettySize=auto;html=1;startArrow=ERone;startFill=0;endArrow=none;endFill=0;exitX=0.5;exitY=0;exitDx=0;exitDy=0;entryX=0;entryY=0.5;entryDx=0;entryDy=0;" parent="pAx6MIiJs9md1RZ7_73a-1" source="syMxJS4I7-vvspAqpIxT-8" target="1bRgtQcLL5dLRBGIEbU9-2" edge="1"><mxGeometry relative="1" as="geometry"><mxPoint x="1216.9296984463426" y="-683.9070887639218" as="sourcePoint"/></mxGeometry></mxCell><mxCell id="1bRgtQcLL5dLRBGIEbU9-5" style="edgeStyle=none;rounded=0;orthogonalLoop=1;jettySize=auto;html=1;entryX=1;entryY=0.5;entryDx=0;entryDy=0;startArrow=ERone;startFill=0;endArrow=none;endFill=0;exitX=0;exitY=0.5;exitDx=0;exitDy=0;" parent="pAx6MIiJs9md1RZ7_73a-1" source="syMxJS4I7-vvspAqpIxT-8" target="cOnySKGzXaCLTlc3LaJJ-32" edge="1"><mxGeometry relative="1" as="geometry"><mxPoint x="1155.4820624422528" y="-669.4226271246523" as="sourcePoint"/></mxGeometry></mxCell><mxCell id="1bRgtQcLL5dLRBGIEbU9-8" value="" style="edgeStyle=none;rounded=0;orthogonalLoop=1;jettySize=auto;html=1;startArrow=ERone;startFill=0;endArrow=none;endFill=0;exitX=1;exitY=0.5;exitDx=0;exitDy=0;entryX=0;entryY=0.5;entryDx=0;entryDy=0;" parent="pAx6MIiJs9md1RZ7_73a-1" source="syMxJS4I7-vvspAqpIxT-8" target="1bRgtQcLL5dLRBGIEbU9-7" edge="1"><mxGeometry relative="1" as="geometry"><mxPoint x="1251.910824495984" y="-621.8317147124285" as="sourcePoint"/></mxGeometry></mxCell><mxCell id="1bRgtQcLL5dLRBGIEbU9-12" value="" style="edgeStyle=none;rounded=0;orthogonalLoop=1;jettySize=auto;html=1;startArrow=ERone;startFill=0;endArrow=none;endFill=0;exitX=0;exitY=0.75;exitDx=0;exitDy=0;entryX=1;entryY=0.5;entryDx=0;entryDy=0;" parent="pAx6MIiJs9md1RZ7_73a-1" source="syMxJS4I7-vvspAqpIxT-8" target="1bRgtQcLL5dLRBGIEbU9-11" edge="1"><mxGeometry relative="1" as="geometry"><mxPoint x="1143.2666558931323" y="-648.766967646379" as="sourcePoint"/></mxGeometry></mxCell><mxCell id="s3YhKiOlecFoSWtnPtgo-1" style="edgeStyle=none;rounded=0;orthogonalLoop=1;jettySize=auto;html=1;endArrow=none;endFill=0;startArrow=ERone;startFill=0;entryX=0.5;entryY=0;entryDx=0;entryDy=0;" parent="pAx6MIiJs9md1RZ7_73a-1" source="syMxJS4I7-vvspAqpIxT-8" target="cOnySKGzXaCLTlc3LaJJ-28" edge="1"><mxGeometry relative="1" as="geometry"><mxPoint x="1210.0261538730952" y="-605.2752069482704" as="sourcePoint"/></mxGeometry></mxCell><mxCell id="1bRgtQcLL5dLRBGIEbU9-4" value="" style="edgeStyle=none;rounded=0;orthogonalLoop=1;jettySize=auto;html=1;endArrow=ERone;endFill=0;entryX=0;entryY=0.5;entryDx=0;entryDy=0;exitX=1;exitY=0.5;exitDx=0;exitDy=0;" parent="pAx6MIiJs9md1RZ7_73a-1" source="1bRgtQcLL5dLRBGIEbU9-2" target="syMxJS4I7-vvspAqpIxT-9" edge="1"><mxGeometry relative="1" as="geometry"><mxPoint x="1282.4954162147978" y="-828.408263060463" as="targetPoint"/></mxGeometry></mxCell><mxCell id="1bRgtQcLL5dLRBGIEbU9-2" value="make" style="rhombus;whiteSpace=wrap;html=1;" parent="pAx6MIiJs9md1RZ7_73a-1" vertex="1"><mxGeometry x="1165" y="-892" width="80" height="46" as="geometry"/></mxCell><mxCell id="1bRgtQcLL5dLRBGIEbU9-10" value="" style="edgeStyle=none;rounded=0;orthogonalLoop=1;jettySize=auto;html=1;endArrow=ERone;endFill=0;entryX=0.5;entryY=0;entryDx=0;entryDy=0;exitX=1;exitY=0.5;exitDx=0;exitDy=0;" parent="pAx6MIiJs9md1RZ7_73a-1" source="1bRgtQcLL5dLRBGIEbU9-7" target="syMxJS4I7-vvspAqpIxT-10" edge="1"><mxGeometry relative="1" as="geometry"><mxPoint x="1369.9894082536753" y="-573.7365022551664" as="targetPoint"/></mxGeometry></mxCell><mxCell id="1bRgtQcLL5dLRBGIEbU9-7" value="make" style="rhombus;whiteSpace=wrap;html=1;" parent="pAx6MIiJs9md1RZ7_73a-1" vertex="1"><mxGeometry x="1297" y="-715" width="80" height="50" as="geometry"/></mxCell><mxCell id="1bRgtQcLL5dLRBGIEbU9-14" value="" style="edgeStyle=none;rounded=0;orthogonalLoop=1;jettySize=auto;html=1;startArrow=none;startFill=0;endArrow=ERmany;endFill=0;entryX=1;entryY=0.5;entryDx=0;entryDy=0;exitX=0;exitY=0.5;exitDx=0;exitDy=0;" parent="pAx6MIiJs9md1RZ7_73a-1" source="1bRgtQcLL5dLRBGIEbU9-11" target="syMxJS4I7-vvspAqpIxT-7" edge="1"><mxGeometry relative="1" as="geometry"><mxPoint x="959.1408721196192" y="-671.1198517966659" as="targetPoint"/></mxGeometry></mxCell><mxCell id="1bRgtQcLL5dLRBGIEbU9-11" value="make" style="rhombus;whiteSpace=wrap;html=1;" parent="pAx6MIiJs9md1RZ7_73a-1" vertex="1"><mxGeometry x="997" y="-705" width="80" height="46" as="geometry"/></mxCell><mxCell id="1bRgtQcLL5dLRBGIEbU9-31" value="" style="edgeStyle=none;rounded=0;orthogonalLoop=1;jettySize=auto;html=1;startArrow=ERmany;startFill=0;endArrow=none;endFill=0;exitX=0;exitY=0.5;exitDx=0;exitDy=0;entryX=1;entryY=0.5;entryDx=0;entryDy=0;" parent="pAx6MIiJs9md1RZ7_73a-1" source="syMxJS4I7-vvspAqpIxT-7" target="1bRgtQcLL5dLRBGIEbU9-30" edge="1"><mxGeometry relative="1" as="geometry"><mxPoint x="845.3007270377416" y="-695.8711651112826" as="sourcePoint"/></mxGeometry></mxCell><mxCell id="1bRgtQcLL5dLRBGIEbU9-18" value="" style="edgeStyle=none;rounded=0;orthogonalLoop=1;jettySize=auto;html=1;startArrow=none;startFill=0;endArrow=ERmany;endFill=0;entryX=1;entryY=0;entryDx=0;entryDy=0;exitX=0;exitY=0.5;exitDx=0;exitDy=0;" parent="pAx6MIiJs9md1RZ7_73a-1" source="1bRgtQcLL5dLRBGIEbU9-15" target="syMxJS4I7-vvspAqpIxT-2" edge="1"><mxGeometry relative="1" as="geometry"><mxPoint x="460.6737343748621" y="-394.1540852272226" as="targetPoint"/></mxGeometry></mxCell><mxCell id="1bRgtQcLL5dLRBGIEbU9-28" style="rounded=0;orthogonalLoop=1;jettySize=auto;html=1;startArrow=none;startFill=0;endArrow=ERone;endFill=0;entryX=0;entryY=1;entryDx=0;entryDy=0;exitX=1;exitY=0.5;exitDx=0;exitDy=0;" parent="pAx6MIiJs9md1RZ7_73a-1" source="1bRgtQcLL5dLRBGIEbU9-15" target="syMxJS4I7-vvspAqpIxT-4" edge="1"><mxGeometry relative="1" as="geometry"><mxPoint x="628.4023512251699" y="-468.24141073510214" as="targetPoint"/></mxGeometry></mxCell><mxCell id="1bRgtQcLL5dLRBGIEbU9-15" value="send" style="rhombus;whiteSpace=wrap;html=1;" parent="pAx6MIiJs9md1RZ7_73a-1" vertex="1"><mxGeometry x="533" y="-475" width="80" height="55" as="geometry"/></mxCell><mxCell id="1bRgtQcLL5dLRBGIEbU9-34" value="" style="edgeStyle=none;rounded=0;orthogonalLoop=1;jettySize=auto;html=1;startArrow=ERmany;startFill=0;endArrow=none;endFill=0;exitX=0.5;exitY=0;exitDx=0;exitDy=0;" parent="pAx6MIiJs9md1RZ7_73a-1" source="syMxJS4I7-vvspAqpIxT-2" target="1bRgtQcLL5dLRBGIEbU9-33" edge="1"><mxGeometry relative="1" as="geometry"><mxPoint x="406.66699576289125" y="-414.99012711326213" as="sourcePoint"/></mxGeometry></mxCell><mxCell id="1bRgtQcLL5dLRBGIEbU9-32" style="edgeStyle=none;rounded=0;orthogonalLoop=1;jettySize=auto;html=1;startArrow=none;startFill=0;endArrow=ERone;endFill=0;entryX=1;entryY=0.5;entryDx=0;entryDy=0;exitX=0;exitY=0.5;exitDx=0;exitDy=0;" parent="pAx6MIiJs9md1RZ7_73a-1" source="1bRgtQcLL5dLRBGIEbU9-30" target="syMxJS4I7-vvspAqpIxT-1" edge="1"><mxGeometry relative="1" as="geometry"><mxPoint x="443" y="-745" as="targetPoint"/></mxGeometry></mxCell><mxCell id="1bRgtQcLL5dLRBGIEbU9-30" value="get" style="rhombus;whiteSpace=wrap;html=1;" parent="pAx6MIiJs9md1RZ7_73a-1" vertex="1"><mxGeometry x="623" y="-785" width="80" height="53" as="geometry"/></mxCell><mxCell id="1bRgtQcLL5dLRBGIEbU9-35" value="" style="edgeStyle=none;rounded=0;orthogonalLoop=1;jettySize=auto;html=1;startArrow=none;startFill=0;endArrow=ERone;endFill=0;" parent="pAx6MIiJs9md1RZ7_73a-1" source="1bRgtQcLL5dLRBGIEbU9-33" target="syMxJS4I7-vvspAqpIxT-1" edge="1"><mxGeometry relative="1" as="geometry"><mxPoint x="383" y="-717" as="targetPoint"/></mxGeometry></mxCell><mxCell id="1bRgtQcLL5dLRBGIEbU9-33" value="receive" style="rhombus;whiteSpace=wrap;html=1;" parent="pAx6MIiJs9md1RZ7_73a-1" vertex="1"><mxGeometry x="363" y="-555" width="80" height="60" as="geometry"/></mxCell><object label="Client" id="syMxJS4I7-vvspAqpIxT-1"><mxCell style="rounded=0;whiteSpace=wrap;html=1;" vertex="1" parent="pAx6MIiJs9md1RZ7_73a-1"><mxGeometry x="344" y="-769" width="120" height="60" as="geometry"/></mxCell></object><mxCell id="syMxJS4I7-vvspAqpIxT-2" value="Mail system" style="rounded=0;whiteSpace=wrap;html=1;" vertex="1" parent="pAx6MIiJs9md1RZ7_73a-1"><mxGeometry x="343" y="-415" width="120" height="60" as="geometry"/></mxCell><mxCell id="syMxJS4I7-vvspAqpIxT-3" value="Camper" style="rounded=0;whiteSpace=wrap;html=1;" vertex="1" parent="pAx6MIiJs9md1RZ7_73a-1"><mxGeometry x="627" y="-282" width="120" height="60" as="geometry"/></mxCell><mxCell id="syMxJS4I7-vvspAqpIxT-4" value="Booking System" style="rounded=0;whiteSpace=wrap;html=1;" vertex="1" parent="pAx6MIiJs9md1RZ7_73a-1"><mxGeometry x="626" y="-524" width="120" height="60" as="geometry"/></mxCell><object label="Insurance" id="syMxJS4I7-vvspAqpIxT-5"><mxCell style="rounded=0;whiteSpace=wrap;html=1;" vertex="1" parent="pAx6MIiJs9md1RZ7_73a-1"><mxGeometry x="667" y="-893" width="120" height="60" as="geometry"/></mxCell></object><mxCell id="syMxJS4I7-vvspAqpIxT-6" value="Bank" style="rounded=0;whiteSpace=wrap;html=1;" vertex="1" parent="pAx6MIiJs9md1RZ7_73a-1"><mxGeometry x="1206" y="-248" width="120" height="60" as="geometry"/></mxCell><object label="Invoice" id="syMxJS4I7-vvspAqpIxT-7"><mxCell style="rounded=0;whiteSpace=wrap;html=1;" vertex="1" parent="pAx6MIiJs9md1RZ7_73a-1"><mxGeometry x="840" y="-715" width="120" height="60" as="geometry"/></mxCell></object><object label="Payment System" id="syMxJS4I7-vvspAqpIxT-8"><mxCell style="rounded=0;whiteSpace=wrap;html=1;" vertex="1" parent="pAx6MIiJs9md1RZ7_73a-1"><mxGeometry x="1106" y="-726" width="120" height="60" as="geometry"/></mxCell></object><object label="Remaining Rental Payment" id="syMxJS4I7-vvspAqpIxT-9"><mxCell style="rounded=0;whiteSpace=wrap;html=1;" vertex="1" parent="pAx6MIiJs9md1RZ7_73a-1"><mxGeometry x="1296" y="-899" width="120" height="60" as="geometry"/></mxCell></object><object label="Deposit" id="syMxJS4I7-vvspAqpIxT-10"><mxCell style="rounded=0;whiteSpace=wrap;html=1;" vertex="1" parent="pAx6MIiJs9md1RZ7_73a-1"><mxGeometry x="1319" y="-626" width="120" height="60" as="geometry"/></mxCell></object></root></mxGraphModel></diagram><diagram id="9d_klUTXLUOu3BCq4yir" name="DFD"><mxGraphModel dx="678" dy="557" grid="0" gridSize="10" guides="1" tooltips="1" connect="1" arrows="1" fold="1" page="1" pageScale="1" pageWidth="1920" pageHeight="1200" background="none" math="0" shadow="0"><root><mxCell id="naTk8dxkhstcDBfvugFQ-0"/><mxCell id="naTk8dxkhstcDBfvugFQ-1" parent="naTk8dxkhstcDBfvugFQ-0"/><mxCell id="naTk8dxkhstcDBfvugFQ-2" value="Client" style="whiteSpace=wrap;html=1;align=center;" parent="naTk8dxkhstcDBfvugFQ-1" vertex="1"><mxGeometry x="359" y="543" width="100" height="40" as="geometry"/></mxCell><mxCell id="qdXLwN7kWDn_XrWOO20H-0" value="Call" style="shape=rhombus;perimeter=rhombusPerimeter;whiteSpace=wrap;html=1;align=center;" parent="naTk8dxkhstcDBfvugFQ-1" vertex="1"><mxGeometry x="511" y="399" width="128" height="61" as="geometry"/></mxCell><mxCell id="qdXLwN7kWDn_XrWOO20H-1" value="Booking System" style="whiteSpace=wrap;html=1;align=center;" parent="naTk8dxkhstcDBfvugFQ-1" vertex="1"><mxGeometry x="957" y="541" width="100" height="40" as="geometry"/></mxCell><mxCell id="m6Q_56QhlxDd4Ysdz_UT-0" value="Payment System" style="whiteSpace=wrap;html=1;align=center;" parent="naTk8dxkhstcDBfvugFQ-1" vertex="1"><mxGeometry x="1429" y="541" width="100" height="40" as="geometry"/></mxCell><mxCell id="m6Q_56QhlxDd4Ysdz_UT-1" value="Mail system" style="rounded=1;arcSize=10;whiteSpace=wrap;html=1;align=center;" parent="naTk8dxkhstcDBfvugFQ-1" vertex="1"><mxGeometry x="957" y="826" width="100" height="40" as="geometry"/></mxCell><mxCell id="HvD2XSz_hWFU3w3OMwRd-0" value="Bank" style="rounded=1;arcSize=10;whiteSpace=wrap;html=1;align=center;" parent="naTk8dxkhstcDBfvugFQ-1" vertex="1"><mxGeometry x="1429" y="824" width="100" height="40" as="geometry"/></mxCell><mxCell id="1SJk67D8mj_7TzBBk6_4-0" value="Camper" style="rounded=1;arcSize=10;whiteSpace=wrap;html=1;align=center;" parent="naTk8dxkhstcDBfvugFQ-1" vertex="1"><mxGeometry x="957" y="259" width="100" height="40" as="geometry"/></mxCell><mxCell id="KrP8jmIJkwH9VBC8B75A-1" value="Website" style="whiteSpace=wrap;html=1;align=center;" parent="naTk8dxkhstcDBfvugFQ-1" vertex="1"><mxGeometry x="771" y="680" width="100" height="40" as="geometry"/></mxCell><mxCell id="KrP8jmIJkwH9VBC8B75A-2" value="Administrator" style="whiteSpace=wrap;html=1;align=center;" parent="naTk8dxkhstcDBfvugFQ-1" vertex="1"><mxGeometry x="771" y="410" width="100" height="40" as="geometry"/></mxCell><mxCell id="KrP8jmIJkwH9VBC8B75A-4" value="" style="endArrow=none;html=1;rounded=0;exitX=0;exitY=0.5;exitDx=0;exitDy=0;entryX=1;entryY=0;entryDx=0;entryDy=0;" parent="naTk8dxkhstcDBfvugFQ-1" source="qdXLwN7kWDn_XrWOO20H-0" target="naTk8dxkhstcDBfvugFQ-2" edge="1"><mxGeometry relative="1" as="geometry"><mxPoint x="533" y="479" as="sourcePoint"/><mxPoint x="711" y="465" as="targetPoint"/></mxGeometry></mxCell><mxCell id="KrP8jmIJkwH9VBC8B75A-5" value="N" style="resizable=0;html=1;align=right;verticalAlign=bottom;" parent="KrP8jmIJkwH9VBC8B75A-4" connectable="0" vertex="1"><mxGeometry x="1" relative="1" as="geometry"/></mxCell><mxCell id="KrP8jmIJkwH9VBC8B75A-6" value="" style="endArrow=none;html=1;rounded=0;entryX=0;entryY=0.5;entryDx=0;entryDy=0;exitX=1;exitY=0.5;exitDx=0;exitDy=0;" parent="naTk8dxkhstcDBfvugFQ-1" source="qdXLwN7kWDn_XrWOO20H-0" target="KrP8jmIJkwH9VBC8B75A-2" edge="1"><mxGeometry relative="1" as="geometry"><mxPoint x="636" y="489" as="sourcePoint"/><mxPoint x="796" y="489" as="targetPoint"/></mxGeometry></mxCell><mxCell id="KrP8jmIJkwH9VBC8B75A-7" value="1" style="resizable=0;html=1;align=right;verticalAlign=bottom;" parent="KrP8jmIJkwH9VBC8B75A-6" connectable="0" vertex="1"><mxGeometry x="1" relative="1" as="geometry"/></mxCell><mxCell id="KrP8jmIJkwH9VBC8B75A-8" value="Gothough" style="shape=rhombus;perimeter=rhombusPerimeter;whiteSpace=wrap;html=1;align=center;" parent="naTk8dxkhstcDBfvugFQ-1" vertex="1"><mxGeometry x="515" y="668" width="120" height="60" as="geometry"/></mxCell><mxCell id="KrP8jmIJkwH9VBC8B75A-10" value="" style="endArrow=none;html=1;rounded=0;entryX=1;entryY=1;entryDx=0;entryDy=0;exitX=0;exitY=0.5;exitDx=0;exitDy=0;" parent="naTk8dxkhstcDBfvugFQ-1" source="KrP8jmIJkwH9VBC8B75A-8" target="naTk8dxkhstcDBfvugFQ-2" edge="1"><mxGeometry relative="1" as="geometry"><mxPoint x="344" y="688" as="sourcePoint"/><mxPoint x="504" y="688" as="targetPoint"/></mxGeometry></mxCell><mxCell id="KrP8jmIJkwH9VBC8B75A-11" value="N" style="resizable=0;html=1;align=right;verticalAlign=bottom;" parent="KrP8jmIJkwH9VBC8B75A-10" connectable="0" vertex="1"><mxGeometry x="1" relative="1" as="geometry"/></mxCell><mxCell id="KrP8jmIJkwH9VBC8B75A-16" value="" style="endArrow=none;html=1;rounded=0;entryX=0;entryY=0.5;entryDx=0;entryDy=0;exitX=1;exitY=0.5;exitDx=0;exitDy=0;" parent="naTk8dxkhstcDBfvugFQ-1" source="KrP8jmIJkwH9VBC8B75A-8" target="KrP8jmIJkwH9VBC8B75A-1" edge="1"><mxGeometry relative="1" as="geometry"><mxPoint x="330" y="721" as="sourcePoint"/><mxPoint x="490" y="721" as="targetPoint"/></mxGeometry></mxCell><mxCell id="KrP8jmIJkwH9VBC8B75A-17" value="1" style="resizable=0;html=1;align=right;verticalAlign=bottom;" parent="KrP8jmIJkwH9VBC8B75A-16" connectable="0" vertex="1"><mxGeometry x="1" relative="1" as="geometry"/></mxCell><mxCell id="KrP8jmIJkwH9VBC8B75A-19" value="ordering" style="shape=rhombus;perimeter=rhombusPerimeter;whiteSpace=wrap;html=1;align=center;" parent="naTk8dxkhstcDBfvugFQ-1" vertex="1"><mxGeometry x="761" y="533" width="120" height="60" as="geometry"/></mxCell><mxCell id="KrP8jmIJkwH9VBC8B75A-20" value="make" style="shape=rhombus;perimeter=rhombusPerimeter;whiteSpace=wrap;html=1;align=center;" parent="naTk8dxkhstcDBfvugFQ-1" vertex="1"><mxGeometry x="1189" y="533" width="120" height="60" as="geometry"/></mxCell><mxCell id="KrP8jmIJkwH9VBC8B75A-21" value="send" style="shape=rhombus;perimeter=rhombusPerimeter;whiteSpace=wrap;html=1;align=center;" parent="naTk8dxkhstcDBfvugFQ-1" vertex="1"><mxGeometry x="947" y="670" width="120" height="60" as="geometry"/></mxCell><mxCell id="KrP8jmIJkwH9VBC8B75A-22" value="reserve" style="shape=rhombus;perimeter=rhombusPerimeter;whiteSpace=wrap;html=1;align=center;" parent="naTk8dxkhstcDBfvugFQ-1" vertex="1"><mxGeometry x="947" y="400" width="120" height="60" as="geometry"/></mxCell><mxCell id="KrP8jmIJkwH9VBC8B75A-23" value="transfer" style="shape=rhombus;perimeter=rhombusPerimeter;whiteSpace=wrap;html=1;align=center;" parent="naTk8dxkhstcDBfvugFQ-1" vertex="1"><mxGeometry x="1419" y="670" width="120" height="60" as="geometry"/></mxCell><mxCell id="Lk-EfNBI6NN3G-TJInDs-0" value="" style="endArrow=none;html=1;rounded=0;entryX=0.5;entryY=1;entryDx=0;entryDy=0;exitX=0.5;exitY=0;exitDx=0;exitDy=0;" parent="naTk8dxkhstcDBfvugFQ-1" source="KrP8jmIJkwH9VBC8B75A-19" target="KrP8jmIJkwH9VBC8B75A-2" edge="1"><mxGeometry relative="1" as="geometry"><mxPoint x="696" y="358" as="sourcePoint"/><mxPoint x="856" y="368" as="targetPoint"/></mxGeometry></mxCell><mxCell id="Lk-EfNBI6NN3G-TJInDs-1" value="1" style="resizable=0;html=1;align=right;verticalAlign=bottom;" parent="Lk-EfNBI6NN3G-TJInDs-0" connectable="0" vertex="1"><mxGeometry x="1" relative="1" as="geometry"/></mxCell><mxCell id="Lk-EfNBI6NN3G-TJInDs-4" value="" style="endArrow=none;html=1;rounded=0;entryX=0.5;entryY=0;entryDx=0;entryDy=0;exitX=0.5;exitY=1;exitDx=0;exitDy=0;" parent="naTk8dxkhstcDBfvugFQ-1" source="KrP8jmIJkwH9VBC8B75A-19" target="KrP8jmIJkwH9VBC8B75A-1" edge="1"><mxGeometry relative="1" as="geometry"><mxPoint x="790" y="655" as="sourcePoint"/><mxPoint x="1038" y="548" as="targetPoint"/></mxGeometry></mxCell><mxCell id="Lk-EfNBI6NN3G-TJInDs-5" value="1" style="resizable=0;html=1;align=right;verticalAlign=bottom;" parent="Lk-EfNBI6NN3G-TJInDs-4" connectable="0" vertex="1"><mxGeometry x="1" relative="1" as="geometry"/></mxCell><mxCell id="4JyVLTvLp4-12FHYrqoZ-0" value="" style="endArrow=none;html=1;rounded=0;exitX=1;exitY=0.5;exitDx=0;exitDy=0;entryX=0;entryY=0.5;entryDx=0;entryDy=0;" parent="naTk8dxkhstcDBfvugFQ-1" source="KrP8jmIJkwH9VBC8B75A-19" target="qdXLwN7kWDn_XrWOO20H-1" edge="1"><mxGeometry relative="1" as="geometry"><mxPoint x="929" y="548" as="sourcePoint"/><mxPoint x="1089" y="548" as="targetPoint"/></mxGeometry></mxCell><mxCell id="4JyVLTvLp4-12FHYrqoZ-1" value="1" style="resizable=0;html=1;align=right;verticalAlign=bottom;" parent="4JyVLTvLp4-12FHYrqoZ-0" connectable="0" vertex="1"><mxGeometry x="1" relative="1" as="geometry"/></mxCell><mxCell id="h6ha9gBWY-zZyRyt2amD-0" value="receive" style="shape=rhombus;perimeter=rhombusPerimeter;whiteSpace=wrap;html=1;align=center;" parent="naTk8dxkhstcDBfvugFQ-1" vertex="1"><mxGeometry x="349" y="816" width="120" height="60" as="geometry"/></mxCell><mxCell id="vDt_LiIIh_gg9hfc9aPZ-0" value="" style="endArrow=none;html=1;rounded=0;entryX=0;entryY=0.5;entryDx=0;entryDy=0;exitX=1;exitY=0.5;exitDx=0;exitDy=0;" parent="naTk8dxkhstcDBfvugFQ-1" source="h6ha9gBWY-zZyRyt2amD-0" target="m6Q_56QhlxDd4Ysdz_UT-1" edge="1"><mxGeometry relative="1" as="geometry"><mxPoint x="929" y="605" as="sourcePoint"/><mxPoint x="1089" y="605" as="targetPoint"/></mxGeometry></mxCell><mxCell id="vDt_LiIIh_gg9hfc9aPZ-1" value="1" style="resizable=0;html=1;align=right;verticalAlign=bottom;" parent="vDt_LiIIh_gg9hfc9aPZ-0" connectable="0" vertex="1"><mxGeometry x="1" relative="1" as="geometry"/></mxCell><mxCell id="vDt_LiIIh_gg9hfc9aPZ-2" value="" style="endArrow=none;html=1;rounded=0;entryX=0.5;entryY=1;entryDx=0;entryDy=0;exitX=0.5;exitY=0;exitDx=0;exitDy=0;" parent="naTk8dxkhstcDBfvugFQ-1" source="h6ha9gBWY-zZyRyt2amD-0" target="naTk8dxkhstcDBfvugFQ-2" edge="1"><mxGeometry relative="1" as="geometry"><mxPoint x="929" y="605" as="sourcePoint"/><mxPoint x="1089" y="605" as="targetPoint"/></mxGeometry></mxCell><mxCell id="vDt_LiIIh_gg9hfc9aPZ-3" value="1" style="resizable=0;html=1;align=right;verticalAlign=bottom;" parent="vDt_LiIIh_gg9hfc9aPZ-2" connectable="0" vertex="1"><mxGeometry x="1" relative="1" as="geometry"/></mxCell><mxCell id="nXE7gl282daDR1Puksu8-0" value="" style="endArrow=none;html=1;rounded=0;entryX=0.5;entryY=0;entryDx=0;entryDy=0;" parent="naTk8dxkhstcDBfvugFQ-1" source="KrP8jmIJkwH9VBC8B75A-22" target="qdXLwN7kWDn_XrWOO20H-1" edge="1"><mxGeometry relative="1" as="geometry"><mxPoint x="1007" y="461" as="sourcePoint"/><mxPoint x="1089" y="605" as="targetPoint"/></mxGeometry></mxCell><mxCell id="nXE7gl282daDR1Puksu8-1" value="1" style="resizable=0;html=1;align=right;verticalAlign=bottom;" parent="nXE7gl282daDR1Puksu8-0" connectable="0" vertex="1"><mxGeometry x="1" relative="1" as="geometry"/></mxCell><mxCell id="nXE7gl282daDR1Puksu8-2" value="" style="endArrow=none;html=1;rounded=0;entryX=0.5;entryY=1;entryDx=0;entryDy=0;exitX=0.5;exitY=0;exitDx=0;exitDy=0;" parent="naTk8dxkhstcDBfvugFQ-1" source="KrP8jmIJkwH9VBC8B75A-22" target="1SJk67D8mj_7TzBBk6_4-0" edge="1"><mxGeometry relative="1" as="geometry"><mxPoint x="929" y="605" as="sourcePoint"/><mxPoint x="1089" y="605" as="targetPoint"/></mxGeometry></mxCell><mxCell id="nXE7gl282daDR1Puksu8-3" value="N" style="resizable=0;html=1;align=right;verticalAlign=bottom;" parent="nXE7gl282daDR1Puksu8-2" connectable="0" vertex="1"><mxGeometry x="1" relative="1" as="geometry"/></mxCell><mxCell id="hFnEMzX5ZMJCnUyrxiKX-0" value="" style="endArrow=none;html=1;rounded=0;entryX=0.5;entryY=1;entryDx=0;entryDy=0;exitX=0.5;exitY=0;exitDx=0;exitDy=0;" parent="naTk8dxkhstcDBfvugFQ-1" source="KrP8jmIJkwH9VBC8B75A-21" target="qdXLwN7kWDn_XrWOO20H-1" edge="1"><mxGeometry relative="1" as="geometry"><mxPoint x="929" y="605" as="sourcePoint"/><mxPoint x="1089" y="605" as="targetPoint"/></mxGeometry></mxCell><mxCell id="hFnEMzX5ZMJCnUyrxiKX-1" value="1" style="resizable=0;html=1;align=right;verticalAlign=bottom;" parent="hFnEMzX5ZMJCnUyrxiKX-0" connectable="0" vertex="1"><mxGeometry x="1" relative="1" as="geometry"/></mxCell><mxCell id="hFnEMzX5ZMJCnUyrxiKX-2" value="" style="endArrow=none;html=1;rounded=0;exitX=0.5;exitY=1;exitDx=0;exitDy=0;entryX=0.5;entryY=0;entryDx=0;entryDy=0;" parent="naTk8dxkhstcDBfvugFQ-1" source="KrP8jmIJkwH9VBC8B75A-21" target="m6Q_56QhlxDd4Ysdz_UT-1" edge="1"><mxGeometry relative="1" as="geometry"><mxPoint x="929" y="605" as="sourcePoint"/><mxPoint x="1089" y="605" as="targetPoint"/></mxGeometry></mxCell><mxCell id="hFnEMzX5ZMJCnUyrxiKX-3" value="N" style="resizable=0;html=1;align=right;verticalAlign=bottom;" parent="hFnEMzX5ZMJCnUyrxiKX-2" connectable="0" vertex="1"><mxGeometry x="1" relative="1" as="geometry"/></mxCell><mxCell id="r7CXm_BpLcPksp6SXm2W-0" value="" style="endArrow=none;html=1;rounded=0;entryX=1;entryY=0.5;entryDx=0;entryDy=0;exitX=0;exitY=0.5;exitDx=0;exitDy=0;" parent="naTk8dxkhstcDBfvugFQ-1" source="KrP8jmIJkwH9VBC8B75A-20" target="qdXLwN7kWDn_XrWOO20H-1" edge="1"><mxGeometry relative="1" as="geometry"><mxPoint x="929" y="605" as="sourcePoint"/><mxPoint x="1089" y="605" as="targetPoint"/></mxGeometry></mxCell><mxCell id="r7CXm_BpLcPksp6SXm2W-1" value="1" style="resizable=0;html=1;align=right;verticalAlign=bottom;" parent="r7CXm_BpLcPksp6SXm2W-0" connectable="0" vertex="1"><mxGeometry x="1" relative="1" as="geometry"/></mxCell><mxCell id="r7CXm_BpLcPksp6SXm2W-2" value="" style="endArrow=none;html=1;rounded=0;entryX=0;entryY=0.5;entryDx=0;entryDy=0;exitX=1;exitY=0.5;exitDx=0;exitDy=0;" parent="naTk8dxkhstcDBfvugFQ-1" source="KrP8jmIJkwH9VBC8B75A-20" target="m6Q_56QhlxDd4Ysdz_UT-0" edge="1"><mxGeometry relative="1" as="geometry"><mxPoint x="929" y="605" as="sourcePoint"/><mxPoint x="1089" y="605" as="targetPoint"/></mxGeometry></mxCell><mxCell id="r7CXm_BpLcPksp6SXm2W-3" value="1" style="resizable=0;html=1;align=right;verticalAlign=bottom;" parent="r7CXm_BpLcPksp6SXm2W-2" connectable="0" vertex="1"><mxGeometry x="1" relative="1" as="geometry"/></mxCell><mxCell id="rif7PmA8PnyXATn93ZRy-4" value="" style="endArrow=none;html=1;rounded=0;exitX=0.5;exitY=1;exitDx=0;exitDy=0;entryX=0.5;entryY=0;entryDx=0;entryDy=0;" parent="naTk8dxkhstcDBfvugFQ-1" source="KrP8jmIJkwH9VBC8B75A-23" target="HvD2XSz_hWFU3w3OMwRd-0" edge="1"><mxGeometry relative="1" as="geometry"><mxPoint x="1434" y="780" as="sourcePoint"/><mxPoint x="1594" y="780" as="targetPoint"/></mxGeometry></mxCell><mxCell id="rif7PmA8PnyXATn93ZRy-5" value="1" style="resizable=0;html=1;align=right;verticalAlign=bottom;" parent="rif7PmA8PnyXATn93ZRy-4" connectable="0" vertex="1"><mxGeometry x="1" relative="1" as="geometry"/></mxCell><mxCell id="rif7PmA8PnyXATn93ZRy-6" value="" style="endArrow=none;html=1;rounded=0;entryX=0.5;entryY=1;entryDx=0;entryDy=0;exitX=0.5;exitY=0;exitDx=0;exitDy=0;" parent="naTk8dxkhstcDBfvugFQ-1" source="KrP8jmIJkwH9VBC8B75A-23" target="m6Q_56QhlxDd4Ysdz_UT-0" edge="1"><mxGeometry relative="1" as="geometry"><mxPoint x="1282" y="640" as="sourcePoint"/><mxPoint x="1442" y="640" as="targetPoint"/></mxGeometry></mxCell><mxCell id="rif7PmA8PnyXATn93ZRy-7" value="1" style="resizable=0;html=1;align=right;verticalAlign=bottom;" parent="rif7PmA8PnyXATn93ZRy-6" connectable="0" vertex="1"><mxGeometry x="1" relative="1" as="geometry"/></mxCell><mxCell id="iz5j9rZ5zO0iGmbEDC9z-2" value="ClientID" style="ellipse;whiteSpace=wrap;html=1;" vertex="1" parent="naTk8dxkhstcDBfvugFQ-1"><mxGeometry x="355" y="413" width="61" height="47" as="geometry"/></mxCell><mxCell id="iz5j9rZ5zO0iGmbEDC9z-5" value="Name" style="ellipse;whiteSpace=wrap;html=1;" vertex="1" parent="naTk8dxkhstcDBfvugFQ-1"><mxGeometry x="268" y="428" width="61" height="47" as="geometry"/></mxCell><mxCell id="iz5j9rZ5zO0iGmbEDC9z-7" value="PhoneNo" style="ellipse;whiteSpace=wrap;html=1;" vertex="1" parent="naTk8dxkhstcDBfvugFQ-1"><mxGeometry x="250" y="617" width="61" height="47" as="geometry"/></mxCell><mxCell id="iz5j9rZ5zO0iGmbEDC9z-9" value="DriveLicense" style="ellipse;whiteSpace=wrap;html=1;" vertex="1" parent="naTk8dxkhstcDBfvugFQ-1"><mxGeometry x="315" y="664" width="81" height="47" as="geometry"/></mxCell><mxCell id="iz5j9rZ5zO0iGmbEDC9z-11" value="Email Address" style="ellipse;whiteSpace=wrap;html=1;" vertex="1" parent="naTk8dxkhstcDBfvugFQ-1"><mxGeometry x="211" y="558" width="61" height="47" as="geometry"/></mxCell><mxCell id="iz5j9rZ5zO0iGmbEDC9z-13" value="Address" style="ellipse;whiteSpace=wrap;html=1;" vertex="1" parent="naTk8dxkhstcDBfvugFQ-1"><mxGeometry x="197" y="490" width="61" height="47" as="geometry"/></mxCell><mxCell id="iz5j9rZ5zO0iGmbEDC9z-15" value="" style="endArrow=none;dashed=1;html=1;entryX=0.5;entryY=0;entryDx=0;entryDy=0;exitX=0.618;exitY=0.988;exitDx=0;exitDy=0;exitPerimeter=0;edgeStyle=orthogonalEdgeStyle;curved=1;" edge="1" parent="naTk8dxkhstcDBfvugFQ-1" source="iz5j9rZ5zO0iGmbEDC9z-2" target="naTk8dxkhstcDBfvugFQ-2"><mxGeometry width="50" height="50" relative="1" as="geometry"><mxPoint x="273" y="605" as="sourcePoint"/><mxPoint x="323" y="555" as="targetPoint"/></mxGeometry></mxCell><mxCell id="iz5j9rZ5zO0iGmbEDC9z-16" value="" style="endArrow=none;dashed=1;html=1;entryX=0.25;entryY=0;entryDx=0;entryDy=0;exitX=1;exitY=1;exitDx=0;exitDy=0;edgeStyle=orthogonalEdgeStyle;curved=1;" edge="1" parent="naTk8dxkhstcDBfvugFQ-1" source="iz5j9rZ5zO0iGmbEDC9z-5" target="naTk8dxkhstcDBfvugFQ-2"><mxGeometry width="50" height="50" relative="1" as="geometry"><mxPoint x="402.698" y="469.4359999999999" as="sourcePoint"/><mxPoint x="418.9999999999999" y="552.9999999999999" as="targetPoint"/><Array as="points"><mxPoint x="358" y="468"/><mxPoint x="358" y="543"/></Array></mxGeometry></mxCell><mxCell id="iz5j9rZ5zO0iGmbEDC9z-17" value="" style="endArrow=none;dashed=1;html=1;entryX=0;entryY=0.25;entryDx=0;entryDy=0;exitX=1;exitY=0.5;exitDx=0;exitDy=0;edgeStyle=orthogonalEdgeStyle;curved=1;" edge="1" parent="naTk8dxkhstcDBfvugFQ-1" source="iz5j9rZ5zO0iGmbEDC9z-13" target="naTk8dxkhstcDBfvugFQ-2"><mxGeometry width="50" height="50" relative="1" as="geometry"><mxPoint x="412.698" y="479.4359999999999" as="sourcePoint"/><mxPoint x="428.9999999999999" y="562.9999999999999" as="targetPoint"/></mxGeometry></mxCell><mxCell id="iz5j9rZ5zO0iGmbEDC9z-18" value="" style="endArrow=none;dashed=1;html=1;entryX=-0.001;entryY=0.653;entryDx=0;entryDy=0;exitX=1;exitY=0.5;exitDx=0;exitDy=0;edgeStyle=orthogonalEdgeStyle;curved=1;entryPerimeter=0;" edge="1" parent="naTk8dxkhstcDBfvugFQ-1" source="iz5j9rZ5zO0iGmbEDC9z-11" target="naTk8dxkhstcDBfvugFQ-2"><mxGeometry width="50" height="50" relative="1" as="geometry"><mxPoint x="422.698" y="489.4359999999999" as="sourcePoint"/><mxPoint x="438.9999999999999" y="572.9999999999999" as="targetPoint"/></mxGeometry></mxCell><mxCell id="iz5j9rZ5zO0iGmbEDC9z-19" value="" style="endArrow=none;dashed=1;html=1;entryX=0.25;entryY=1;entryDx=0;entryDy=0;exitX=1;exitY=0;exitDx=0;exitDy=0;edgeStyle=orthogonalEdgeStyle;curved=1;" edge="1" parent="naTk8dxkhstcDBfvugFQ-1" source="iz5j9rZ5zO0iGmbEDC9z-7" target="naTk8dxkhstcDBfvugFQ-2"><mxGeometry width="50" height="50" relative="1" as="geometry"><mxPoint x="432.698" y="499.4359999999999" as="sourcePoint"/><mxPoint x="448.9999999999999" y="582.9999999999999" as="targetPoint"/></mxGeometry></mxCell><mxCell id="iz5j9rZ5zO0iGmbEDC9z-20" value="" style="endArrow=none;dashed=1;html=1;entryX=0.636;entryY=0.006;entryDx=0;entryDy=0;edgeStyle=orthogonalEdgeStyle;curved=1;exitX=0.385;exitY=0.997;exitDx=0;exitDy=0;exitPerimeter=0;entryPerimeter=0;" edge="1" parent="naTk8dxkhstcDBfvugFQ-1" source="naTk8dxkhstcDBfvugFQ-2" target="iz5j9rZ5zO0iGmbEDC9z-9"><mxGeometry width="50" height="50" relative="1" as="geometry"><mxPoint x="443" y="537" as="sourcePoint"/><mxPoint x="458.9999999999999" y="592.9999999999999" as="targetPoint"/></mxGeometry></mxCell><mxCell id="iz5j9rZ5zO0iGmbEDC9z-21" value="Mail Type" style="ellipse;whiteSpace=wrap;html=1;" vertex="1" parent="naTk8dxkhstcDBfvugFQ-1"><mxGeometry x="881" y="946" width="81" height="47" as="geometry"/></mxCell><mxCell id="iz5j9rZ5zO0iGmbEDC9z-22" value="" style="endArrow=none;dashed=1;html=1;edgeStyle=orthogonalEdgeStyle;curved=1;exitX=0.116;exitY=0.991;exitDx=0;exitDy=0;exitPerimeter=0;" edge="1" parent="naTk8dxkhstcDBfvugFQ-1" source="m6Q_56QhlxDd4Ysdz_UT-1" target="iz5j9rZ5zO0iGmbEDC9z-21"><mxGeometry width="50" height="50" relative="1" as="geometry"><mxPoint x="859.02" y="876" as="sourcePoint"/><mxPoint x="828.036" y="957.4019999999999" as="targetPoint"/></mxGeometry></mxCell><mxCell id="iz5j9rZ5zO0iGmbEDC9z-23" value="Delivery Date" style="ellipse;whiteSpace=wrap;html=1;" vertex="1" parent="naTk8dxkhstcDBfvugFQ-1"><mxGeometry x="1035" y="946" width="81" height="47" as="geometry"/></mxCell><mxCell id="iz5j9rZ5zO0iGmbEDC9z-24" value="" style="endArrow=none;dashed=1;html=1;edgeStyle=orthogonalEdgeStyle;curved=1;exitX=0.75;exitY=1;exitDx=0;exitDy=0;" edge="1" parent="naTk8dxkhstcDBfvugFQ-1" target="iz5j9rZ5zO0iGmbEDC9z-23" source="m6Q_56QhlxDd4Ysdz_UT-1"><mxGeometry width="50" height="50" relative="1" as="geometry"><mxPoint x="1085.6000000000001" y="884.0500000000001" as="sourcePoint"/><mxPoint x="945.036" y="975.8119999999999" as="targetPoint"/></mxGeometry></mxCell><mxCell id="bkg40wvrN6tz_V908NOk-0" value="Bank Name" style="ellipse;whiteSpace=wrap;html=1;" vertex="1" parent="naTk8dxkhstcDBfvugFQ-1"><mxGeometry x="1392" y="930" width="81" height="47" as="geometry"/></mxCell><mxCell id="bkg40wvrN6tz_V908NOk-1" value="" style="endArrow=none;dashed=1;html=1;edgeStyle=orthogonalEdgeStyle;curved=1;exitX=0.5;exitY=1;exitDx=0;exitDy=0;" edge="1" parent="naTk8dxkhstcDBfvugFQ-1" target="bkg40wvrN6tz_V908NOk-0" source="HvD2XSz_hWFU3w3OMwRd-0"><mxGeometry width="50" height="50" relative="1" as="geometry"><mxPoint x="1371" y="886.5" as="sourcePoint"/><mxPoint x="1306.036" y="1035.312" as="targetPoint"/></mxGeometry></mxCell><mxCell id="bkg40wvrN6tz_V908NOk-2" value="Bank ID" style="ellipse;whiteSpace=wrap;html=1;" vertex="1" parent="naTk8dxkhstcDBfvugFQ-1"><mxGeometry x="1521" y="930" width="81" height="47" as="geometry"/></mxCell><mxCell id="bkg40wvrN6tz_V908NOk-3" value="" style="endArrow=none;dashed=1;html=1;edgeStyle=orthogonalEdgeStyle;curved=1;exitX=0.75;exitY=1;exitDx=0;exitDy=0;entryX=0;entryY=0;entryDx=0;entryDy=0;" edge="1" parent="naTk8dxkhstcDBfvugFQ-1" source="HvD2XSz_hWFU3w3OMwRd-0" target="bkg40wvrN6tz_V908NOk-2"><mxGeometry width="50" height="50" relative="1" as="geometry"><mxPoint x="1489" y="874" as="sourcePoint"/><mxPoint x="1442.5" y="940" as="targetPoint"/></mxGeometry></mxCell><mxCell id="bkg40wvrN6tz_V908NOk-4" value="CamperID" style="ellipse;whiteSpace=wrap;html=1;" vertex="1" parent="naTk8dxkhstcDBfvugFQ-1"><mxGeometry x="1050" y="158" width="81" height="47" as="geometry"/></mxCell><mxCell id="bkg40wvrN6tz_V908NOk-5" value="" style="endArrow=none;dashed=1;html=1;edgeStyle=orthogonalEdgeStyle;curved=1;exitX=0.5;exitY=0;exitDx=0;exitDy=0;" edge="1" parent="naTk8dxkhstcDBfvugFQ-1" target="bkg40wvrN6tz_V908NOk-4" source="1SJk67D8mj_7TzBBk6_4-0"><mxGeometry width="50" height="50" relative="1" as="geometry"><mxPoint x="982" y="183" as="sourcePoint"/><mxPoint x="1026.036" y="214.8119999999999" as="targetPoint"/></mxGeometry></mxCell><mxCell id="bkg40wvrN6tz_V908NOk-6" value="CamperType" style="ellipse;whiteSpace=wrap;html=1;" vertex="1" parent="naTk8dxkhstcDBfvugFQ-1"><mxGeometry x="1168" y="186" width="81" height="47" as="geometry"/></mxCell><mxCell id="bkg40wvrN6tz_V908NOk-7" value="" style="endArrow=none;dashed=1;html=1;edgeStyle=orthogonalEdgeStyle;curved=1;" edge="1" parent="naTk8dxkhstcDBfvugFQ-1" target="bkg40wvrN6tz_V908NOk-6" source="1SJk67D8mj_7TzBBk6_4-0"><mxGeometry width="50" height="50" relative="1" as="geometry"><mxPoint x="1058" y="280" as="sourcePoint"/><mxPoint x="1144.036" y="242.8119999999999" as="targetPoint"/></mxGeometry></mxCell><mxCell id="bkg40wvrN6tz_V908NOk-8" value="CategoryID" style="ellipse;whiteSpace=wrap;html=1;" vertex="1" parent="naTk8dxkhstcDBfvugFQ-1"><mxGeometry x="904" y="111" width="81" height="47" as="geometry"/></mxCell><mxCell id="bkg40wvrN6tz_V908NOk-9" value="" style="endArrow=none;dashed=1;html=1;edgeStyle=orthogonalEdgeStyle;curved=1;exitX=0.1;exitY=0.025;exitDx=0;exitDy=0;exitPerimeter=0;" edge="1" parent="naTk8dxkhstcDBfvugFQ-1" target="bkg40wvrN6tz_V908NOk-8" source="1SJk67D8mj_7TzBBk6_4-0"><mxGeometry width="50" height="50" relative="1" as="geometry"><mxPoint x="883" y="212" as="sourcePoint"/><mxPoint x="902.0360000000001" y="167.8119999999999" as="targetPoint"/></mxGeometry></mxCell><mxCell id="bkg40wvrN6tz_V908NOk-10" value="FullTankStatus" style="ellipse;whiteSpace=wrap;html=1;" vertex="1" parent="naTk8dxkhstcDBfvugFQ-1"><mxGeometry x="819" y="162" width="81" height="47" as="geometry"/></mxCell><mxCell id="bkg40wvrN6tz_V908NOk-11" value="" style="endArrow=none;dashed=1;html=1;edgeStyle=orthogonalEdgeStyle;curved=1;exitX=0;exitY=0.5;exitDx=0;exitDy=0;" edge="1" parent="naTk8dxkhstcDBfvugFQ-1" target="bkg40wvrN6tz_V908NOk-10" source="1SJk67D8mj_7TzBBk6_4-0"><mxGeometry width="50" height="50" relative="1" as="geometry"><mxPoint x="798" y="278" as="sourcePoint"/><mxPoint x="817.0360000000001" y="233.8119999999999" as="targetPoint"/></mxGeometry></mxCell><mxCell id="bkg40wvrN6tz_V908NOk-12" value="CamperRegisterYear" style="ellipse;whiteSpace=wrap;html=1;" vertex="1" parent="naTk8dxkhstcDBfvugFQ-1"><mxGeometry x="696" y="237" width="123" height="46" as="geometry"/></mxCell><mxCell id="bkg40wvrN6tz_V908NOk-13" value="" style="endArrow=none;dashed=1;html=1;edgeStyle=orthogonalEdgeStyle;curved=1;exitX=0;exitY=1;exitDx=0;exitDy=0;" edge="1" parent="naTk8dxkhstcDBfvugFQ-1" target="bkg40wvrN6tz_V908NOk-12" source="1SJk67D8mj_7TzBBk6_4-0"><mxGeometry width="50" height="50" relative="1" as="geometry"><mxPoint x="685" y="317" as="sourcePoint"/><mxPoint x="704.0360000000001" y="272.8119999999999" as="targetPoint"/></mxGeometry></mxCell></root></mxGraphModel></diagram></mxfile>